2.5Hzhigh3min_grf.mot
version=1
nRows=20
nColumns 19
inDegrees=yes
endheader
time	1_ground_force_vx	1_ground_force_vy	1_ground_force_vz	1_ground_force_px	1_ground_force_py	1_ground_force_pz	1_ground_torque_x	1_ground_torque_y	1_ground_torque_z	2_ground_force_vx	2_ground_force_vy	2_ground_force_vz	2_ground_force_px	2_ground_force_py	2_ground_force_pz	2_ground_torque_x	2_ground_torque_y	2_ground_torque_z
            1.253500	          -22.921547	          922.137998	          -57.483760	           -0.158149	            0.006342	           -0.429850	           -0.046864	            1.885359	           -0.117529	          -23.738364	          951.188279	           68.633735	           -0.169224	            0.005858	           -0.693526	            0.036691	           -1.470186	           -0.106082
            1.254000	          -22.230008	          912.039714	          -56.703346	           -0.157946	            0.006342	           -0.429973	           -0.044849	            1.840023	           -0.114398	          -23.328628	          941.432213	           67.941759	           -0.169072	            0.005858	           -0.693391	            0.036107	           -1.457097	           -0.105157
            1.254500	          -21.356000	          903.745045	          -56.144934	           -0.157839	            0.006341	           -0.429655	           -0.042468	            1.797169	           -0.111649	          -22.548765	          932.966592	           67.207293	           -0.169118	            0.005858	           -0.693545	            0.037604	           -1.555878	           -0.112079
            1.255000	          -20.755854	          893.285880	          -55.274126	           -0.157873	            0.006342	           -0.429950	           -0.041611	            1.790853	           -0.110813	          -22.141646	          923.946632	           66.611801	           -0.169074	            0.005858	           -0.693418	            0.036780	           -1.534807	           -0.110652
            1.255500	          -20.156643	          884.810468	          -54.624100	           -0.157806	            0.006341	           -0.429698	           -0.038904	            1.707737	           -0.105428	          -21.642260	          915.296251	           65.782942	           -0.169021	            0.005858	           -0.693510	            0.033635	           -1.422479	           -0.102235
            1.256000	          -19.786660	          875.794563	          -54.021675	           -0.157837	            0.006341	           -0.429529	           -0.034975	            1.548052	           -0.095489	          -21.377810	          906.829272	           64.907912	           -0.169111	            0.005859	           -0.693697	            0.028649	           -1.215272	           -0.086985
            1.256500	          -18.819053	          865.153993	          -52.877416	           -0.157493	            0.006342	           -0.429876	           -0.033292	            1.530496	           -0.093543	          -20.363114	          898.180964	           63.984977	           -0.169115	            0.005859	           -0.693647	            0.026580	           -1.172382	           -0.083519
            1.257000	          -18.402190	          856.676776	          -51.814227	           -0.157644	            0.006341	           -0.429619	           -0.032530	            1.514387	           -0.091594	          -19.716492	          887.689227	           63.243344	           -0.169011	            0.005858	           -0.693411	            0.024497	           -1.102927	           -0.078578
            1.257500	          -17.710324	          846.037333	          -50.944420	           -0.157370	            0.006342	           -0.429811	           -0.031219	            1.491377	           -0.089804	          -19.127433	          880.144363	           62.324532	           -0.169173	            0.005858	           -0.693637	            0.024730	           -1.137951	           -0.080580
            1.258000	          -16.790226	          837.021535	          -50.343361	           -0.157335	            0.006342	           -0.429795	           -0.029810	            1.486082	           -0.089382	          -18.442456	          872.045636	           61.919918	           -0.169231	            0.005859	           -0.693908	            0.025269	           -1.194853	           -0.084841
            1.258500	          -15.961795	          827.284731	          -49.791019	           -0.157282	            0.006342	           -0.429798	           -0.028706	            1.487802	           -0.089545	          -18.174619	          862.657389	           61.182387	           -0.169075	            0.005859	           -0.693847	            0.023799	           -1.129628	           -0.080117
            1.259000	          -15.453729	          817.727178	          -49.007831	           -0.157179	            0.006341	           -0.429702	           -0.026003	            1.375927	           -0.082462	          -17.722020	          854.006215	           60.494332	           -0.168928	            0.005860	           -0.693817	            0.021420	           -1.032216	           -0.073118
            1.259500	          -14.899676	          809.250700	          -48.082555	           -0.157198	            0.006341	           -0.429689	           -0.023198	            1.259950	           -0.074861	          -16.941596	          845.357351	           59.524569	           -0.169111	            0.005859	           -0.693877	            0.019089	           -0.952494	           -0.067068
            1.260000	          -14.390909	          798.971101	          -47.073176	           -0.157019	            0.006342	           -0.429736	           -0.021557	            1.196814	           -0.070513	          -16.390063	          835.234059	           58.643506	           -0.169195	            0.005859	           -0.693714	            0.015265	           -0.777926	           -0.054620
            1.260500	          -13.928620	          789.053069	          -46.291420	           -0.156964	            0.006342	           -0.429766	           -0.020986	            1.188859	           -0.069747	          -15.750627	          826.766926	           58.190669	           -0.169071	            0.005859	           -0.693825	            0.015407	           -0.808735	           -0.056922
            1.261000	          -13.282815	          780.216016	          -45.367918	           -0.156857	            0.006341	           -0.429668	           -0.020502	            1.204252	           -0.070025	          -15.344276	          817.932005	           57.361193	           -0.169078	            0.005859	           -0.693738	            0.015492	           -0.825803	           -0.057913
            1.261500	          -12.958136	          770.117858	          -44.632446	           -0.156840	            0.006343	           -0.429960	           -0.019489	            1.158265	           -0.067128	          -14.751046	          809.280791	           56.860792	           -0.169100	            0.005860	           -0.693889	            0.015358	           -0.842564	           -0.059199
            1.262000	          -11.991544	          761.281185	          -43.755591	           -0.156691	            0.006341	           -0.429616	           -0.017441	            1.107269	           -0.063642	          -14.389633	          799.893887	           55.841652	           -0.169110	            0.005859	           -0.693797	            0.015732	           -0.874515	           -0.061051
            1.262500	          -11.025536	          751.904804	          -43.156192	           -0.156807	            0.006342	           -0.429829	           -0.015941	            1.087138	           -0.062397	          -13.515968	          791.427768	           55.341787	           -0.169182	            0.005859	           -0.693893	            0.013018	           -0.762273	           -0.053303
            1.263000	          -10.425976	          740.905930	          -42.562839	           -0.156432	            0.006343	           -0.430050	           -0.013539	            0.962136	           -0.055272	          -13.151191	          781.119887	           54.413219	           -0.169037	            0.005859	           -0.693733	            0.010580	           -0.628376	           -0.043773
